<svg class="svg-icon" width="21pt" height="21pt" version="1.1" viewBox="0 0 1200 1200" xmlns="http://www.w3.org/2000/svg">
 <path d="m1194.2 519.36c-1.918-9.8242-7.9414-18.363-16.551-23.473-8.6133-5.1055-18.992-6.2969-28.535-3.2695-22.984 0.050781-45.094-8.793-61.703-24.672-16.609-15.883-26.434-37.578-27.41-60.535-0.46094-10.457-6.0352-20.02-14.91-25.562-21.113-13.633-42.605 7.8359-65.043 5.1836-30.266-0.24609-58.363-15.742-74.723-41.207-16.359-25.465-18.773-57.461-6.4141-85.09 3.7148-8.2539 3.7539-17.699 0.10938-25.984-3.6484-8.2852-10.637-14.637-19.234-17.473-17.992-5.75-33.684-17.082-44.805-32.352-11.117-15.27-17.086-33.684-17.039-52.57-3.4805-28.402 23.457-48.828 15.762-72.922-3.0469-8.9023-9.875-15.996-18.648-19.387-122.73-47.188-257.57-52.742-383.77-15.809-126.2 36.934-236.76 114.31-314.68 220.22-77.926 105.91-118.89 234.49-116.59 365.96 2.2969 131.47 47.727 258.54 129.3 361.67s194.78 176.59 322.18 209.1c127.41 32.5 261.97 22.238 382.98-29.207 121.01-51.445 221.76-141.23 286.76-255.53 64.992-114.3 90.633-246.79 72.965-377.09zm-739.71 489.56c-3.4102 7.7031-9.7344 13.738-17.59 16.781-7.8516 3.043-16.594 2.8477-24.305-0.54297-82.445-36.371-152.55-95.922-201.77-171.4-49.223-75.484-75.445-163.64-75.484-253.76 0-11.348 6.0547-21.832 15.883-27.508 9.8281-5.6758 21.934-5.6758 31.762 0 9.8281 5.6758 15.883 16.16 15.883 27.508 0.035156 77.789 22.676 153.89 65.168 219.05 42.488 65.16 103 116.57 174.17 147.98 7.7148 3.3945 13.766 9.7188 16.816 17.574 3.0547 7.8555 2.8633 16.602-0.53125 24.316zm145.37-169.82 0.003906 0.003906c-63.375-0.089843-124.13-25.301-168.94-70.113s-70.027-105.57-70.113-168.94c13.137-317.16 465.14-317.16 478.11 0-0.085937 63.379-25.305 124.14-70.121 168.95-44.816 44.812-105.58 70.023-168.96 70.105z"/>
</svg>
